<svg width="93" height="92" viewBox="0 0 93 92" fill="none" xmlns="http://www.w3.org/2000/svg">
<path d="M37.6606 64.0594H54.5845H37.6606ZM46.1243 13.4931V17.105V13.4931ZM69.1724 23.014L66.6119 25.5676L69.1724 23.014ZM78.7191 46H75.0974H78.7191ZM17.1512 46H13.5296H17.1512ZM25.6367 25.5676L23.0762 23.014L25.6367 25.5676ZM33.3182 58.7716C30.7862 56.2458 29.062 53.0279 28.3637 49.5248C27.6654 46.0218 28.0243 42.3909 29.395 39.0912C30.7657 35.7916 33.0867 32.9714 36.0645 30.9872C39.0422 29.003 42.5431 27.944 46.1243 27.944C49.7056 27.944 53.2064 29.003 56.1842 30.9872C59.162 32.9714 61.483 35.7916 62.8537 39.0912C64.2244 42.3909 64.5833 46.0218 63.8849 49.5248C63.1866 53.0279 61.4624 56.2458 58.9304 58.7716L56.9458 60.7473C55.8112 61.8791 54.9112 63.2227 54.2972 64.7013C53.6833 66.18 53.3674 67.7648 53.3676 69.3652V71.2831C53.3676 73.199 52.6045 75.0364 51.2461 76.3911C49.8877 77.7458 48.0454 78.5069 46.1243 78.5069C44.2033 78.5069 42.3609 77.7458 41.0026 76.3911C39.6442 75.0364 38.881 73.199 38.881 71.2831V69.3652C38.881 66.1326 37.5917 63.03 35.3029 60.7473L33.3182 58.7716Z" stroke="#EC7979" stroke-width="6.83333" stroke-linecap="round" stroke-linejoin="round"/>
<path d="M46.1241 0.694824C71.2151 0.694824 91.5537 20.9804 91.5537 46.0005C91.5535 71.0204 71.2149 91.3052 46.1241 91.3052C21.0333 91.305 0.695606 71.0203 0.695343 46.0005C0.695343 20.9805 21.0332 0.694968 46.1241 0.694824Z" stroke="#EC7979"/>
</svg>
