<svg width="40" height="40" viewBox="0 0 40 40" fill="none" xmlns="http://www.w3.org/2000/svg">
<g clip-path="url(#clip0_1_45)">
<path d="M35.7975 9.18002L20.6817 0.187444C20.2616 -0.0623999 19.7384 -0.0623999 19.3184 0.187444L4.2025 9.18002C3.79851 9.42041 3.55086 9.85588 3.55086 10.326V15.4593C3.55086 26.2713 9.79773 36.1465 19.5186 39.9101C19.828 40.0299 20.1716 40.0301 20.4814 39.9101C30.1787 36.1559 36.4491 26.3021 36.4491 15.4593V10.326C36.4491 9.8558 36.2016 9.42041 35.7975 9.18002ZM26.5873 17.0039L18.2306 25.3606C17.7099 25.8814 16.8657 25.8814 16.345 25.3606L13.4122 22.4279C12.8915 21.9073 12.8915 21.063 13.4122 20.5423C13.9329 20.0217 14.7772 20.0217 15.2978 20.5423L17.2877 22.5322L24.7016 15.1183C25.2223 14.5977 26.0666 14.5977 26.5873 15.1183C27.108 15.6391 27.108 16.4833 26.5873 17.0039Z" fill="#0083FF"/>
</g>
<defs>
<clipPath id="clip0_1_45">
<rect width="40" height="40" fill="white"/>
</clipPath>
</defs>
</svg>
